<mxfile host="app.diagrams.net" modified="2024-07-13T08:27:45.298Z" agent="Mozilla/5.0 (Windows NT 10.0; Win64; x64) AppleWebKit/537.36 (KHTML, like Gecko) Chrome/126.0.0.0 Safari/537.36 Edg/126.0.0.0" etag="bIG-2kBNMYwRP-7VGFDi" version="24.6.5" type="github">
  <diagram name="第 1 页" id="XM-QQ_GINkhsytJjqGbc">
    <mxGraphModel dx="2906" dy="1153" grid="1" gridSize="10" guides="1" tooltips="1" connect="1" arrows="1" fold="1" page="1" pageScale="1" pageWidth="827" pageHeight="1169" math="0" shadow="0">
      <root>
        <mxCell id="0" />
        <mxCell id="1" parent="0" />
        <mxCell id="ngc6CNLOzdQMG07sub1l-4" value="&lt;font style=&quot;font-size: 18px;&quot;&gt;&lt;b&gt;规则数据&lt;/b&gt;&lt;/font&gt;" style="rounded=1;whiteSpace=wrap;html=1;" vertex="1" parent="1">
          <mxGeometry x="354" y="70" width="156" height="80" as="geometry" />
        </mxCell>
        <mxCell id="ngc6CNLOzdQMG07sub1l-5" value="&lt;b&gt;&lt;font style=&quot;font-size: 14px;&quot;&gt;对照风险标准筛选&lt;/font&gt;&lt;/b&gt;" style="shape=parallelogram;perimeter=parallelogramPerimeter;whiteSpace=wrap;html=1;fixedSize=1;" vertex="1" parent="1">
          <mxGeometry x="352" y="220" width="158" height="80" as="geometry" />
        </mxCell>
        <mxCell id="ngc6CNLOzdQMG07sub1l-6" value="" style="endArrow=classic;html=1;rounded=0;" edge="1" parent="1" target="ngc6CNLOzdQMG07sub1l-5">
          <mxGeometry width="50" height="50" relative="1" as="geometry">
            <mxPoint x="430" y="150" as="sourcePoint" />
            <mxPoint x="480" y="100" as="targetPoint" />
          </mxGeometry>
        </mxCell>
        <mxCell id="ngc6CNLOzdQMG07sub1l-7" value="&lt;span style=&quot;font-size: 18px;&quot;&gt;&lt;b&gt;可能产生&lt;/b&gt;&lt;/span&gt;&lt;div&gt;&lt;span style=&quot;font-size: 18px;&quot;&gt;&lt;b&gt;风险的数据&lt;/b&gt;&lt;/span&gt;&lt;/div&gt;" style="rounded=1;whiteSpace=wrap;html=1;" vertex="1" parent="1">
          <mxGeometry x="354" y="370" width="156" height="80" as="geometry" />
        </mxCell>
        <mxCell id="ngc6CNLOzdQMG07sub1l-8" value="" style="endArrow=classic;html=1;rounded=0;" edge="1" parent="1">
          <mxGeometry width="50" height="50" relative="1" as="geometry">
            <mxPoint x="430.5" y="300" as="sourcePoint" />
            <mxPoint x="431.5" y="370" as="targetPoint" />
          </mxGeometry>
        </mxCell>
        <mxCell id="ngc6CNLOzdQMG07sub1l-9" value="&lt;b&gt;&lt;font style=&quot;font-size: 14px;&quot;&gt;计算访问命中率&lt;/font&gt;&lt;/b&gt;" style="shape=parallelogram;perimeter=parallelogramPerimeter;whiteSpace=wrap;html=1;fixedSize=1;" vertex="1" parent="1">
          <mxGeometry x="354" y="520" width="158" height="80" as="geometry" />
        </mxCell>
        <mxCell id="ngc6CNLOzdQMG07sub1l-11" value="" style="endArrow=classic;html=1;rounded=0;" edge="1" parent="1">
          <mxGeometry width="50" height="50" relative="1" as="geometry">
            <mxPoint x="432.5" y="450" as="sourcePoint" />
            <mxPoint x="433.5" y="520" as="targetPoint" />
          </mxGeometry>
        </mxCell>
        <mxCell id="ngc6CNLOzdQMG07sub1l-12" value="&lt;b&gt;&lt;font style=&quot;font-size: 14px;&quot;&gt;规则—风险告警&lt;/font&gt;&lt;/b&gt;&lt;div&gt;&lt;b&gt;&lt;font style=&quot;font-size: 14px;&quot;&gt;对照信息记录表&lt;/font&gt;&lt;/b&gt;&lt;/div&gt;" style="shape=document;whiteSpace=wrap;html=1;boundedLbl=1;" vertex="1" parent="1">
          <mxGeometry x="620" y="220" width="120" height="80" as="geometry" />
        </mxCell>
        <mxCell id="ngc6CNLOzdQMG07sub1l-15" value="" style="endArrow=classic;html=1;rounded=0;entryX=0;entryY=0.5;entryDx=0;entryDy=0;" edge="1" parent="1">
          <mxGeometry width="50" height="50" relative="1" as="geometry">
            <mxPoint x="500" y="259.5" as="sourcePoint" />
            <mxPoint x="618" y="259.5" as="targetPoint" />
          </mxGeometry>
        </mxCell>
        <mxCell id="ngc6CNLOzdQMG07sub1l-16" value="&lt;font style=&quot;font-size: 16px;&quot;&gt;中间产出&lt;/font&gt;" style="text;strokeColor=none;align=center;fillColor=none;html=1;verticalAlign=middle;whiteSpace=wrap;rounded=0;" vertex="1" parent="1">
          <mxGeometry x="530" y="230" width="70" height="30" as="geometry" />
        </mxCell>
        <mxCell id="ngc6CNLOzdQMG07sub1l-18" value="&lt;font style=&quot;font-size: 18px;&quot;&gt;&lt;b&gt;有命中的规则&lt;/b&gt;&lt;/font&gt;" style="rounded=1;whiteSpace=wrap;html=1;" vertex="1" parent="1">
          <mxGeometry x="360" y="670" width="156" height="80" as="geometry" />
        </mxCell>
        <mxCell id="ngc6CNLOzdQMG07sub1l-19" value="" style="endArrow=classic;html=1;rounded=0;" edge="1" parent="1">
          <mxGeometry width="50" height="50" relative="1" as="geometry">
            <mxPoint x="432.5" y="600" as="sourcePoint" />
            <mxPoint x="433.5" y="670" as="targetPoint" />
          </mxGeometry>
        </mxCell>
        <mxCell id="ngc6CNLOzdQMG07sub1l-20" value="" style="endArrow=classic;html=1;rounded=0;entryX=0;entryY=0.5;entryDx=0;entryDy=0;" edge="1" parent="1" target="ngc6CNLOzdQMG07sub1l-21">
          <mxGeometry width="50" height="50" relative="1" as="geometry">
            <mxPoint x="500" y="559.5" as="sourcePoint" />
            <mxPoint x="610" y="559.5" as="targetPoint" />
          </mxGeometry>
        </mxCell>
        <mxCell id="ngc6CNLOzdQMG07sub1l-21" value="&lt;span style=&quot;font-size: 14px;&quot;&gt;&lt;b&gt;无命中规则，可能建议做关闭处理&lt;/b&gt;&lt;/span&gt;" style="shape=document;whiteSpace=wrap;html=1;boundedLbl=1;" vertex="1" parent="1">
          <mxGeometry x="630" y="520" width="120" height="80" as="geometry" />
        </mxCell>
        <mxCell id="ngc6CNLOzdQMG07sub1l-22" value="&lt;font style=&quot;font-size: 16px;&quot;&gt;中间产出&lt;/font&gt;" style="text;strokeColor=none;align=center;fillColor=none;html=1;verticalAlign=middle;whiteSpace=wrap;rounded=0;" vertex="1" parent="1">
          <mxGeometry x="540" y="520" width="70" height="30" as="geometry" />
        </mxCell>
        <mxCell id="ngc6CNLOzdQMG07sub1l-24" value="&lt;b&gt;&lt;font style=&quot;font-size: 14px;&quot;&gt;结合具体业务数据&lt;/font&gt;&lt;/b&gt;&lt;div&gt;&lt;b&gt;&lt;font style=&quot;font-size: 14px;&quot;&gt;进行访问精细化分析&lt;/font&gt;&lt;/b&gt;&lt;/div&gt;" style="shape=parallelogram;perimeter=parallelogramPerimeter;whiteSpace=wrap;html=1;fixedSize=1;" vertex="1" parent="1">
          <mxGeometry x="360" y="820" width="158" height="80" as="geometry" />
        </mxCell>
        <mxCell id="ngc6CNLOzdQMG07sub1l-25" value="" style="endArrow=classic;html=1;rounded=0;" edge="1" parent="1">
          <mxGeometry width="50" height="50" relative="1" as="geometry">
            <mxPoint x="432.5" y="750" as="sourcePoint" />
            <mxPoint x="433.5" y="820" as="targetPoint" />
          </mxGeometry>
        </mxCell>
        <mxCell id="ngc6CNLOzdQMG07sub1l-26" value="&lt;span style=&quot;font-size: 14px;&quot;&gt;&lt;b&gt;具体业务数据&lt;/b&gt;&lt;/span&gt;" style="shape=document;whiteSpace=wrap;html=1;boundedLbl=1;" vertex="1" parent="1">
          <mxGeometry x="140" y="820" width="120" height="80" as="geometry" />
        </mxCell>
        <mxCell id="ngc6CNLOzdQMG07sub1l-27" value="" style="endArrow=classic;html=1;rounded=0;" edge="1" parent="1">
          <mxGeometry width="50" height="50" relative="1" as="geometry">
            <mxPoint x="260" y="850" as="sourcePoint" />
            <mxPoint x="370" y="850" as="targetPoint" />
          </mxGeometry>
        </mxCell>
        <mxCell id="ngc6CNLOzdQMG07sub1l-28" value="" style="endArrow=classic;html=1;rounded=0;" edge="1" parent="1">
          <mxGeometry width="50" height="50" relative="1" as="geometry">
            <mxPoint x="432.5" y="900" as="sourcePoint" />
            <mxPoint x="433.5" y="970" as="targetPoint" />
          </mxGeometry>
        </mxCell>
        <mxCell id="ngc6CNLOzdQMG07sub1l-29" value="&lt;span style=&quot;font-size: 18px;&quot;&gt;&lt;b&gt;精细化&lt;/b&gt;&lt;/span&gt;&lt;div&gt;&lt;span style=&quot;font-size: 18px;&quot;&gt;&lt;b&gt;管理建议&lt;/b&gt;&lt;/span&gt;&lt;/div&gt;" style="rounded=1;whiteSpace=wrap;html=1;" vertex="1" parent="1">
          <mxGeometry x="360" y="970" width="156" height="80" as="geometry" />
        </mxCell>
        <mxCell id="ngc6CNLOzdQMG07sub1l-30" value="&lt;font style=&quot;font-size: 16px;&quot;&gt;外部参考&lt;/font&gt;" style="text;strokeColor=none;align=center;fillColor=none;html=1;verticalAlign=middle;whiteSpace=wrap;rounded=0;" vertex="1" parent="1">
          <mxGeometry x="280" y="820" width="70" height="30" as="geometry" />
        </mxCell>
      </root>
    </mxGraphModel>
  </diagram>
</mxfile>
